<svg xmlns="http://www.w3.org/2000/svg" width="430" height="430" style="width:100%;height:100%;transform:translate3d(0,0,0);content-visibility:visible" viewBox="0 0 430 430"><defs><clipPath id="b"><path d="M0 0h430v430H0z"/></clipPath><clipPath id="c"><path d="M0 0h430v430H0z"/></clipPath><path id="a" fill="#B26836" d="M124.5 34.495v27.77c0 7.62-5.71 14.03-13.28 14.9l-29.04 3.36a85.26 85.26 0 0 0-23.07 6.03c-19 7.95-39.2 11.92-59.41 11.92-20.1 0-40.2-3.93-59.12-11.8l-.2-.08a89.077 89.077 0 0 0-24.07-6.26l-27.53-3.17c-7.57-.88-13.28-7.29-13.28-14.9v-27.77c0-5.57.55-11.02 1.6-16.28 7.56-38.04 41.13-66.72 81.4-66.72h7.63v-38.52l31.6-11.45 36.15 9.69v40.28h7.62c40.27 0 73.84 28.68 81.4 66.72 1.05 5.26 1.6 10.71 1.6 16.28z" style="display:block" transform="translate(215.061 310.103)"/><mask id="d" mask-type="alpha"><use xmlns:ns1="http://www.w3.org/1999/xlink" ns1:href="#a"/></mask></defs><g clip-path="url(#b)"><g clip-path="url(#c)" style="display:block"><g fill="#B26836" style="display:block"><path d="M339.561 344.598v27.77c0 7.62-5.71 14.03-13.28 14.9l-29.04 3.36a85.26 85.26 0 0 0-23.07 6.03c-19 7.95-39.2 11.92-59.41 11.92-20.1 0-40.2-3.93-59.12-11.8l-.2-.08a89.077 89.077 0 0 0-24.07-6.26l-27.53-3.17c-7.57-.88-13.28-7.29-13.28-14.9v-27.77c0-5.57.55-11.02 1.6-16.28 7.56-38.04 41.13-66.72 81.4-66.72h7.63v-38.52l31.6-11.45 36.15 9.69v40.28h7.62c40.27 0 73.84 28.68 81.4 66.72 1.05 5.26 1.6 10.71 1.6 16.28z" class="secondary"/><path d="m43.097-88.785-31.6 11.45v38.52h-7.63c-40.27 0-73.84 28.68-81.4 66.72h-.114a83.149 83.149 0 0 0-1.6 16.28v27.77c0 7.61 5.71 14.02 13.28 14.9l16.72 1.93v-44.6c0-5.57.55-11.02 1.6-16.28h.114c7.52-72.87 102.86-46.23 126.78-85.18v-21.82l-36.15-9.69z" class="secondary" opacity=".5" style="mix-blend-mode:multiply" transform="translate(169.677 300.413)"/></g><g fill="#F28BA8" mask="url(#d)" style="display:block"><path d="m339.561 344.598.11 114.27c0 7.62-5.71 14.03-13.28 14.9l-29.04 3.36a85.26 85.26 0 0 0-23.07 6.03c-19 7.95-39.2 11.92-59.41 11.92-20.1 0-40.2-3.93-59.12-11.8l-.2-.08a89.077 89.077 0 0 0-24.07-6.26l-27.53-3.17c-7.57-.88-13.28-7.29-13.28-14.9l-.11-114.27c0-5.57.55-11.02 1.6-16.28h61.44s39.31 6.72 55.05 14.78c4.03 2.06 8.76 2.01 12.77-.09 15.33-8.02 53.08-14.69 53.08-14.69h63.46c1.05 5.26 1.6 10.71 1.6 16.28z" class="quaternary"/><path d="M-14.2-30.44h30a83.148 83.148 0 0 0-1.6 16.28l.11 131.1-16.72-1.93c-7.57-.88-13.28-7.29-13.28-14.9l-.11-114.27c0-5.57.55-11.02 1.6-16.28z" class="quaternary" opacity=".5" style="mix-blend-mode:multiply" transform="translate(106.229 358.758)"/></g><path fill="none" stroke="#121331" stroke-linecap="round" stroke-linejoin="round" stroke-width="7" d="M153.54 328.41v-64.3m120.9 64.3v-64.77m-93.31-21.19v19.24m67.75-19.25v19.25m0 0h7.62c45.84 0 83 37.16 83 83v27.77c0 7.62-5.71 14.03-13.28 14.9l-29.04 3.36a85.26 85.26 0 0 0-23.07 6.03c-19 7.95-39.2 11.92-59.41 11.92-20.1 0-40.2-3.93-59.12-11.8l-.2-.08a89.077 89.077 0 0 0-24.07-6.26l-27.53-3.17c-7.57-.88-13.28-7.29-13.28-14.9v-27.77c0-45.84 37.16-83 83-83h7.63m156.77 66.72h-63.46s-37.745 6.669-53.079 14.691c-4.006 2.096-8.741 2.149-12.765.088-15.742-8.062-55.056-14.779-55.056-14.779H92.1" class="primary" style="display:block"/><g fill="#3A3347" style="display:block"><path d="M335.38 105.931c-2.03-7.88-12.999-17.964-16.651-21.149-.698-4.785-3.221-19.428-8.655-25.44-5.345-5.916-19.628-10.035-24.35-11.269-2.702-4.029-11.219-16.044-18.689-19.231-7.256-3.095-21.94-1.034-26.772-.234-4.088-2.62-16.607-10.189-24.768-10.189-8.161 0-20.68 7.569-24.768 10.189-4.832-.8-19.516-2.861-26.773.234-7.47 3.186-15.987 15.203-18.689 19.231-4.722 1.234-19.005 5.354-24.35 11.27-5.434 6.012-7.956 20.654-8.654 25.439-3.652 3.185-14.621 13.269-16.651 21.149-1.994 7.738 2.765 22.024 4.406 26.567-1.641 4.544-6.4 18.831-4.406 26.568 2.03 7.88 12.999 17.964 16.651 21.149.698 4.786 3.221 19.428 8.655 25.44 5.345 5.916 19.628 10.036 24.35 11.27 2.702 4.029 11.219 16.044 18.689 19.23 2.274.97 4.545 1.451 7.59 1.607a3.5 3.5 0 0 0 3.674-3.316c.003-.061-.008-.119-.008-.179h80.567c0 .047-.011.092-.009.139a3.502 3.502 0 0 0 3.636 3.358c3.143-.125 5.14-.547 7.631-1.609 7.469-3.187 15.987-15.202 18.689-19.231 4.722-1.234 19.005-5.353 24.35-11.269 5.434-6.012 7.956-20.654 8.654-25.44 3.652-3.185 14.621-13.269 16.651-21.149 1.994-7.737-2.765-22.024-4.406-26.568 1.641-4.544 6.4-18.83 4.406-26.567z" class="tertiary"/><path d="M119.883-22.167c-2.03-7.88-13-17.96-16.65-21.15-.7-4.78-3.22-19.42-8.65-25.44-5.35-5.91-19.63-10.03-24.35-11.27-2.71-4.02-11.22-16.04-18.69-19.23-7.26-3.09-21.94-1.03-26.77-.23-4.09-2.62-16.61-10.19-24.77-10.19s-20.68 7.57-24.77 10.19c-4.83-.8-19.52-2.86-26.77.23-7.47 3.19-15.99 15.21-18.69 19.23-4.72 1.24-19.01 5.36-24.35 11.27-5.44 6.02-7.96 20.66-8.66 25.44-3.65 3.19-14.62 13.27-16.65 21.15-1.99 7.74 2.77 22.03 4.41 26.57-1.64 4.54-6.4 18.83-4.41 26.57 2.03 7.88 13 17.96 16.65 21.15.7 4.78 3.22 19.42 8.66 25.44 5.34 5.91 19.63 10.03 24.35 11.27 2.7 4.02 11.22 16.04 18.69 19.23 2.27.97 4.54 1.45 7.59 1.6.06.01.12.01.18.01 1.85 0 3.4-1.45 3.49-3.32 0-.06-.01-.12-.01-.18h80.57c0 .05-.01.09-.01.14a3.507 3.507 0 0 0 3.64 3.36c3.14-.13 5.14-.55 7.63-1.61 7.47-3.19 15.98-15.21 18.69-19.23 4.72-1.24 19-5.36 24.35-11.27 5.43-6.02 7.95-20.66 8.65-25.44 3.65-3.19 14.62-13.27 16.65-21.15 2-7.74-2.76-22.03-4.4-26.57 1.64-4.54 6.4-18.83 4.4-26.57zm-2.393 50.829c-1.885 7.292-12.031 16.618-15.413 19.569-.646 4.427-2.972 17.976-8.002 23.534-4.954 5.482-18.169 9.284-22.531 10.436-2.499 3.727-10.383 14.842-17.298 17.793-2.305.98-4.146 1.368-7.065 1.486-1.777.075-3.285-1.325-3.36-3.113 0-.043.011-.075.011-.129h-74.553c0 .065.011.118.011.172a3.246 3.246 0 0 1-3.231 3.07h-.172c-2.822-.151-4.923-.592-7.023-1.486-6.915-2.951-14.798-14.066-17.297-17.793-4.362-1.142-17.587-4.954-22.531-10.436-5.03-5.558-7.357-19.107-8.003-23.534-3.382-2.951-13.538-12.277-15.412-19.569-1.842-7.162 2.563-20.378 4.082-24.589-1.519-4.2-5.924-17.426-4.082-24.578 1.874-7.291 12.03-16.629 15.412-19.569.646-4.437 2.973-17.987 8.003-23.544 4.944-5.471 18.169-9.284 22.531-10.426 2.499-3.727 10.382-14.853 17.297-17.793 6.71-2.865 20.302-.958 24.772-.226 3.78-2.423 15.369-9.424 22.919-9.424 7.55 0 19.14 7.001 22.92 9.424 4.47-.732 18.061-2.638 24.771.216 6.915 2.951 14.799 14.076 17.298 17.803 4.362 1.142 17.577 4.955 22.531 10.426 5.03 5.557 7.356 19.107 8.002 23.544 3.382 2.94 13.528 12.278 15.413 19.569 1.842 7.152-2.563 20.378-4.082 24.578 1.519 4.211 5.924 17.427 4.082 24.589z" class="tertiary" opacity=".5" style="mix-blend-mode:multiply" transform="translate(215.495 128.095)"/></g><path fill="none" stroke="#121331" stroke-linecap="round" stroke-linejoin="round" stroke-width="7" d="M43.771-1.145c2.911-.116 4.453-.501 6.397-1.33 7.758-3.309 17.886-19.073 17.886-19.073s18.4-4.436 23.929-10.555c5.608-6.206 7.965-24.886 7.965-24.886s14.458-12.116 16.549-20.23c2.042-7.926-4.751-25.694-4.751-25.694s6.792-17.768 4.75-25.694c-2.091-8.114-16.549-20.23-16.549-20.23s-2.356-18.68-7.964-24.886c-5.529-6.119-23.929-10.555-23.929-10.555s-10.129-15.763-17.887-19.072c-7.53-3.212-26.158.231-26.158.231S8.512-213.492 0-213.492s-24.009 10.373-24.009 10.373-18.628-3.443-26.159-.231c-7.758 3.309-17.886 19.072-17.886 19.072s-18.4 4.437-23.929 10.556c-5.608 6.206-7.965 24.886-7.965 24.886s-14.458 12.115-16.549 20.229c-2.042 7.926 4.751 25.694 4.751 25.694s-6.792 17.769-4.75 25.695c2.091 8.114 16.549 20.23 16.549 20.23s2.356 18.679 7.964 24.885c5.529 6.119 23.929 10.556 23.929 10.556S-57.925-5.784-50.167-2.475c1.832.781 3.679 1.191 6.396 1.33h87.542z" class="primary" style="display:block" transform="translate(214.999 234.637)"/><path fill="none" stroke="#FFC738" stroke-linecap="round" stroke-linejoin="round" stroke-width="7" d="M169.479 205.455c0 17.482-14.173 31.654-31.655 31.654s-31.654-14.172-31.654-31.654 14.172-31.654 31.654-31.654 31.655 14.172 31.655 31.654zm154 0c0 17.482-14.173 31.654-31.655 31.654s-31.654-14.172-31.654-31.654 14.172-31.654 31.654-31.654 31.655 14.172 31.655 31.654z" class="quinary" style="display:block"/><path fill="#B26836" d="M266.44 104.38s-3.94 4.62-11.802 4.778c-5.343.107-12.154-2.481-15.513-4.408-7.068 4.523-15.473 10.628-23.747 10.406-10.017-.268-19.791-7.531-24.378-10.406-17.625 10-27.45-.36-27.45-.36a59.336 59.336 0 0 0-10.06 35.29l1.94 55.78c.55 16.05 7.42 30.44 18.16 40.81C184.33 246.64 198.94 253 215 253c32.11 0 58.46-25.44 59.57-57.54l1.94-55.78c.46-13.06-3.32-25.26-10.07-35.3z" class="secondary" style="display:block"/></g></g></svg>